<svg xmlns="http://www.w3.org/2000/svg" xmlns:svg="http://www.w3.org/2000/svg" xmlns:xlink="http://www.w3.org/1999/xlink" id="svg1998" width="51.604" height="59.644" version="1.0"><title id="title3303">ASA</title><metadata id="metadata2003"/><defs id="defs2001"><linearGradient id="linearGradient10123"><stop style="stop-color:#e4405c;stop-opacity:1" id="stop10125" offset="0"/><stop style="stop-color:#e4405c;stop-opacity:0" id="stop10127" offset="1"/></linearGradient><linearGradient id="linearGradient8331"><stop style="stop-color:#6e8caa;stop-opacity:1" id="stop8333" offset="0"/><stop style="stop-color:#dde3ef;stop-opacity:1" id="stop8335" offset="1"/></linearGradient><linearGradient id="linearGradient6603"><stop style="stop-color:#506eaa;stop-opacity:1" id="stop6605" offset="0"/><stop style="stop-color:#506eaa;stop-opacity:0" id="stop6607" offset="1"/></linearGradient><linearGradient id="linearGradient6587"><stop style="stop-color:#506eaa;stop-opacity:1" id="stop6589" offset="0"/><stop style="stop-color:#506eaa;stop-opacity:0" id="stop6591" offset="1"/></linearGradient><marker id="Arrow2Lstart" orient="auto" refX="0" refY="0" style="overflow:visible"><path id="path11918" d="M 8.7185878,4.0337352 -2.2072895,0.01601326 8.7185884,-4.0017078 c -1.7454984,2.3720609 -1.7354408,5.6174519 -6e-7,8.035443 z" transform="matrix(1.1,0,0,1.1,1.1,0)" style="font-size:12px;fill-rule:evenodd;stroke-width:.625;stroke-linejoin:round"/></marker><marker id="Arrow1Send" orient="auto" refX="0" refY="0" style="overflow:visible"><path id="path11921" d="M 0,0 5,-5 -12.5,0 5,5 0,0 z" transform="matrix(-0.2,0,0,-0.2,-1.2,0)" style="fill-rule:evenodd;stroke:#000;stroke-width:1pt;marker-start:none"/></marker><marker id="Arrow1Lstart" orient="auto" refX="0" refY="0" style="overflow:visible"><path id="path11936" d="M 0,0 5,-5 -12.5,0 5,5 0,0 z" transform="matrix(0.8,0,0,0.8,10,0)" style="fill-rule:evenodd;stroke:#000;stroke-width:1pt;marker-start:none"/></marker><linearGradient id="linearGradient6593" x1="3.956" x2="-1.266" y1=".643" y2=".627" gradientTransform="matrix(1.060042,0,0,1.074658,-0.00394248,-0.356572)" gradientUnits="userSpaceOnUse" xlink:href="#linearGradient6587"/><linearGradient id="linearGradient6609" x1="2.28" x2="-.413" y1="1.452" y2="1.465" gradientTransform="matrix(1.060042,0,0,1.074658,-0.00394248,-0.356572)" gradientUnits="userSpaceOnUse" xlink:href="#linearGradient6603"/><linearGradient id="linearGradient10129" x1="1.399" x2=".5" y1="1.471" y2=".564" gradientTransform="matrix(1.117962,0,0,1.035008,-0.040973,-0.00678868)" gradientUnits="userSpaceOnUse" xlink:href="#linearGradient10123"/><linearGradient id="linearGradient6875" x1="2.118" x2="-.495" y1=".306" y2=".306" gradientTransform="matrix(24.897735,0,0,25.405463,-8.7142066,-5.036317)" gradientUnits="userSpaceOnUse" xlink:href="#linearGradient8331"/></defs><path id="path11907" d="m 2.1353306,56.571921 0,3.050081 42.5430624,0 0,-3.050081 -42.5430624,0" style="fill:#000;fill-opacity:.39215686;stroke:none"/><path id="path11020" d="M 44.78029,7.669639 51.604012,1.290141 51.589402,54.040739 44.67613,59.644003 44.780286,7.669639" style="fill:#000;fill-opacity:.39215686;stroke:none"/><path id="path2037" d="m 0.44711303,4.9828 0,41.171023 44.34519397,0 0,-41.171023 -44.34519397,0" style="fill:#6e8caa;fill-opacity:1;stroke:none"/><path id="path2041" d="m 0,5.456143 5.6766835,-5.411366 44.8408195,0 -5.726478,5.411366 -44.791025,0" style="fill:url(#linearGradient6875);fill-opacity:1;stroke:none"/><path id="path2045" d="M 44.657976,4.960412 50.316005,0 l 0,41.22032 -5.658029,4.960412 0,-41.22032" style="fill:#6e8296;fill-opacity:1;stroke:none"/><path id="path3151" d="m 6.813052,19.432323 19.167626,0 0,-1.277787 4.122053,2.556266 -4.122053,2.768616 0,-1.277752 -19.167626,0 0,-2.769343 z" style="fill:#000;fill-opacity:1"/><path style="fill:#fff" id="path134" d="m 6.9396898,19.052374 18.6464582,0 0,-1.277787 4.009979,2.556266 -4.009979,2.768616 0,-1.277752 -18.6464582,0 0,-2.769343 z"/><path id="path3943" d="m 35.319808,26.588492 -15.869923,0 0,-1.278496 -4.32815,2.556284 4.32815,2.769324 0,-1.278478 15.869923,0 0,-2.768634 z" style="fill:#000;fill-opacity:1"/><path style="fill:#fff" id="path136" d="m 35.573119,26.081906 -15.869923,0 0,-1.278496 -4.32815,2.556283 4.32815,2.769325 0,-1.278478 15.869923,0 0,-2.768634 0,0 z"/><path style="fill:#fff" id="path142" d="m 42.786689,39.501012 -2.679324,3.40859 -9.686817,-8.09495 2.679307,-3.620941 9.686834,8.307301 0,0 z"/><path style="fill:none;stroke:#000;stroke-width:.27946547" id="path144" d="m 42.786689,39.501012 -2.679324,3.40859 -9.686817,-8.09495 2.679307,-3.620941 9.686834,8.307301"/><path style="fill:#fff" id="path146" d="M 7.7491937,21.608622 C 6.9247725,29.915923 12.695651,37.370917 20.527617,38.223242 28.565591,39.287935 35.779215,33.323805 36.809768,25.016504 37.634101,16.709185 31.863276,9.254209 23.825213,8.401884 15.993371,7.337209 8.5736327,13.301304 7.7491937,21.608622 l 2.0610531,0.213095 C 10.634686,14.792186 16.817704,9.680363 23.619117,10.531979 30.626662,11.171209 35.573119,17.774587 34.74868,24.80341 33.924276,31.832959 27.74117,36.944764 20.733713,36.306224 13.9323,35.4539 8.9858256,28.85054 9.8102468,21.821717 l -2.0610531,-0.213095 0,0 z"/><path style="fill:none;stroke:#000;stroke-width:.27946547" id="path148" d="M 7.7491937,21.608622 C 6.9247725,29.915923 12.695651,37.370917 20.527617,38.223242 28.565591,39.287935 35.779215,33.323805 36.809768,25.016504 37.634101,16.709185 31.863276,9.254209 23.825213,8.401884 15.993371,7.337209 8.5736327,13.301304 7.7491937,21.608622"/><path style="fill:none;stroke:#000;stroke-width:.27946547" id="path150" d="M 9.8102468,21.821717 C 10.634686,14.792186 16.817704,9.680363 23.619117,10.531979 30.626662,11.171209 35.573119,17.774587 34.74868,24.80341 33.924276,31.832959 27.74117,36.944764 20.733713,36.306224 13.9323,35.4539 8.9858256,28.85054 9.8102468,21.821717"/><path style="fill:#fff" id="path152" d="M 5.894308,22.24787 C 5.0699044,30.555171 10.840783,38.010148 18.878757,39.074858 26.710705,39.927183 34.130373,33.963053 34.954811,25.655752 35.779215,17.348433 30.214434,9.893457 22.176389,9.041132 14.138414,7.97644 6.9247725,13.940569 5.894308,22.24787 l 2.0609999,0.212368 C 8.7797292,15.431434 14.962836,10.31892 21.970292,11.171209 28.771705,11.810457 33.718162,18.413126 32.893758,25.442658 32.06939,32.472207 25.886302,37.583994 19.084871,36.944764 12.077344,36.093148 7.130869,29.702847 7.9553079,22.460238 L 5.894308,22.24787 l 0,0 z"/><path style="fill:none;stroke:#000;stroke-width:.27946547" id="path154" d="M 5.894308,22.24787 C 5.0699044,30.555171 10.840783,38.010148 18.878757,39.074858 26.710705,39.927183 34.130373,33.963053 34.954811,25.655752 35.779215,17.348433 30.214434,9.893457 22.176389,9.041132 14.138414,7.97644 6.9247725,13.940569 5.894308,22.24787"/><path style="fill:none;stroke:#000;stroke-width:.27946547" id="path156" d="M 7.9553079,22.460238 C 8.7797292,15.431434 14.962836,10.31892 21.970292,11.171209 28.771705,11.810457 33.718162,18.413126 32.893758,25.442658 32.06939,32.472207 25.886302,37.583994 19.084871,36.944764 12.077344,36.093148 7.130869,29.702847 7.9553079,22.460238"/><g id="surface17490" transform="matrix(0.89081749,0,0,1.10942,40.083104,-163.42348)"><path id="path39" d="m 26.585938,42.515625 34.03125,0 0,-2.195313 7.316406,4.390626 -7.316406,4.753906 0,-2.195313 -34.03125,0 0,-4.753906" style="fill:#fff;fill-opacity:1;fill-rule:evenodd;stroke:none"/><path id="path61" d="m 6.428864,8.945547 0.713477,0" transform="matrix(20,0,0,20,-113.69838,-134.2)" style="fill:none;stroke:#fff;stroke-width:.05;stroke-linecap:butt;stroke-linejoin:miter;stroke-miterlimit:10;stroke-opacity:1"/><path id="path99" d="m -27.952349,199.55016 -16.598947,0 0,-5.20546 16.598947,0 0,5.20546" style="fill:#ff545c;fill-opacity:1;fill-rule:evenodd;stroke:none"/><path id="path101" d="m -27.952349,199.55016 -16.437671,0" style="fill:none;stroke:#e1e1e1;stroke-width:.4523178;stroke-linecap:butt;stroke-linejoin:miter;stroke-miterlimit:10;stroke-opacity:1"/><path id="path103" d="m -44.290991,194.3447 16.338642,0 0,5.20546" style="fill:none;stroke:#e1e1e1;stroke-width:.45095325;stroke-linecap:butt;stroke-linejoin:miter;stroke-miterlimit:10;stroke-opacity:1"/><path id="path105" d="m 5.2889328,199.55016 -16.6163048,0 0,-5.20546 16.6163048,0 0,5.20546" style="fill:#ff545c;fill-opacity:1;fill-rule:evenodd;stroke:#e1e1e1;stroke-width:.45095325;stroke-linecap:butt;stroke-linejoin:miter;stroke-miterlimit:10;stroke-opacity:1"/><path id="path107" d="m -2.6048929,199.55016 -16.6336521,0 0,-5.20546 16.6336521,0 0,5.20546" style="fill:#ff545c;fill-opacity:1;fill-rule:evenodd;stroke:#e1e1e1;stroke-width:.45095325;stroke-linecap:butt;stroke-linejoin:miter;stroke-miterlimit:10;stroke-opacity:1"/><path id="path109" d="m -19.238545,199.55016 -16.60763,0 0,-5.20546 16.60763,0 0,5.20546" style="fill:#ff545c;fill-opacity:1;fill-rule:evenodd;stroke:#e1e1e1;stroke-width:.45095325;stroke-linecap:butt;stroke-linejoin:miter;stroke-miterlimit:10;stroke-opacity:1"/><path id="path111" d="m 8.458182,192.52515 2.776615,-2.31149 0,-5.751 -2.776615,2.29882 0,5.76367" style="fill:#ff2833;fill-opacity:1;fill-rule:evenodd;stroke:#e1e1e1;stroke-width:.47425574;stroke-linecap:butt;stroke-linejoin:miter;stroke-miterlimit:10;stroke-opacity:1"/><path id="path125" d="m 8.458182,197.47742 2.776615,-1.831 0,-5.21119 -2.776615,1.82528 0,5.21691" style="fill:#ff2833;fill-opacity:1;fill-rule:evenodd;stroke:#e1e1e1;stroke-width:.45095325;stroke-linecap:butt;stroke-linejoin:miter;stroke-miterlimit:10;stroke-opacity:1"/><path id="path127" d="m 5.2889328,199.55016 3.1692492,-2.07274 0,-5.21691 -3.1692492,2.08419 0,5.20546" style="fill:#ff2833;fill-opacity:1;fill-rule:evenodd;stroke:#e1e1e1;stroke-width:.45095325;stroke-linecap:butt;stroke-linejoin:miter;stroke-miterlimit:10;stroke-opacity:1"/><path id="path133" d="m -11.327372,194.3447 -16.624977,0 0,-5.21118 16.624977,0 0,5.21118" style="fill:#ff545c;fill-opacity:1;fill-rule:evenodd;stroke:#e1e1e1;stroke-width:.45095325;stroke-linecap:butt;stroke-linejoin:miter;stroke-miterlimit:10;stroke-opacity:1"/><path id="path135" d="m -27.952349,194.3447 -16.598947,0 0,-5.21119 16.598947,0 0,5.21119" style="fill:#ff545c;fill-opacity:1;fill-rule:evenodd;stroke:none"/><path id="path137" d="m -27.952349,194.3447 -16.536699,0" style="fill:none;stroke:#e1e1e1;stroke-width:.45367825;stroke-linecap:butt;stroke-linejoin:miter;stroke-miterlimit:10;stroke-opacity:1"/><path id="path139" d="m -44.442086,189.13352 16.489737,0 0,5.21118" style="fill:none;stroke:#e1e1e1;stroke-width:.4530336;stroke-linecap:butt;stroke-linejoin:miter;stroke-miterlimit:10;stroke-opacity:1"/><path id="path141" d="m 5.2889328,194.3447 -16.6163048,0 0,-5.21118 16.6163048,0 0,5.21118" style="fill:#ff545c;fill-opacity:1;fill-rule:evenodd;stroke:#e1e1e1;stroke-width:.45095325;stroke-linecap:butt;stroke-linejoin:miter;stroke-miterlimit:10;stroke-opacity:1"/><path id="path145" d="m 5.2889328,194.3447 3.1692492,-2.16099 0,-5.39729 -3.1692492,2.15507 0,5.40321" style="fill:#ff2833;fill-opacity:1;fill-rule:evenodd;stroke:#e1e1e1;stroke-width:.45918694;stroke-linecap:butt;stroke-linejoin:miter;stroke-miterlimit:10;stroke-opacity:1"/></g></svg>