<svg xmlns="http://www.w3.org/2000/svg" xmlns:cc="http://web.resource.org/cc/" xmlns:svg="http://www.w3.org/2000/svg" xmlns:xlink="http://www.w3.org/1999/xlink" id="svg1998" width="72.14" height="32.198" version="1.0"><metadata id="metadata2003"/><defs id="defs2001"><linearGradient id="linearGradient6603"><stop style="stop-color:#506eaa;stop-opacity:1" id="stop6605" offset="0"/><stop style="stop-color:#506eaa;stop-opacity:0" id="stop6607" offset="1"/></linearGradient><linearGradient id="linearGradient6587"><stop style="stop-color:#6e8caa;stop-opacity:1" id="stop6589" offset="0"/><stop style="stop-color:#edeff3;stop-opacity:1" id="stop6591" offset="1"/></linearGradient><marker id="Arrow2Lstart" orient="auto" refX="0" refY="0" style="overflow:visible"><path id="path11918" d="M 8.7185878,4.0337352 L -2.2072895,0.016013256 L 8.7185884,-4.0017078 C 6.97309,-1.6296469 6.9831476,1.6157441 8.7185878,4.0337352 z" transform="matrix(1.1,0,0,1.1,1.1,0)" style="font-size:12px;fill-rule:evenodd;stroke-width:.625;stroke-linejoin:round"/></marker><marker id="Arrow1Send" orient="auto" refX="0" refY="0" style="overflow:visible"><path id="path11921" d="M 0,0 L 5,-5 L -12.5,0 L 5,5 L 0,0 z" transform="matrix(-0.2,0,0,-0.2,-1.2,0)" style="fill-rule:evenodd;stroke:#000;stroke-width:1pt;marker-start:none"/></marker><marker id="Arrow1Lstart" orient="auto" refX="0" refY="0" style="overflow:visible"><path id="path11936" d="M 0,0 L 5,-5 L -12.5,0 L 5,5 L 0,0 z" transform="matrix(0.8,0,0,0.8,10,0)" style="fill-rule:evenodd;stroke:#000;stroke-width:1pt;marker-start:none"/></marker><linearGradient id="linearGradient6593" x1="3.956" x2="-1.266" y1=".643" y2=".627" gradientTransform="matrix(1.119123,0,0,1.09281,-7.833718e-3,-0.353953)" gradientUnits="userSpaceOnUse" xlink:href="#linearGradient6587"/><linearGradient id="linearGradient6609" x1="2.28" x2="-.413" y1="1.452" y2="1.465" gradientTransform="matrix(1.119124,0,0,1.09281,-7.8336875e-3,-0.353953)" gradientUnits="userSpaceOnUse" xlink:href="#linearGradient6603"/><linearGradient id="linearGradient11856" x1="3.956" x2="-1.266" y1=".643" y2=".627" gradientTransform="matrix(15.191599,0,0,15.33747,-2.531938,3.061917e-2)" gradientUnits="userSpaceOnUse" xlink:href="#linearGradient6587"/></defs><path style="fill:#000;fill-opacity:.39215686;stroke:none;stroke-width:.001" id="path13703" d="M 2.2772683,16.455363 L 2.2772683,32.151128 L 54.874392,32.151128 L 54.874392,16.455363 L 2.2772683,16.455363"/><path style="fill:#000;fill-opacity:.39215686;stroke:none;stroke-width:.001" id="path14592" d="M 54.835664,18.785244 L 71.22016,2.975988 L 71.22016,16.389017 L 54.835664,32.198271 L 54.835664,18.785244"/><path style="fill:#6e8296;fill-opacity:1;stroke:none;stroke-width:.001" id="path2009" d="M 54.766167,16.462321 L 71.967339,2.4980018e-15 L 71.967339,13.967109 L 54.766167,30.42943 L 54.766167,16.462321"/><path style="fill:#6e8caa;fill-opacity:1;stroke:none;stroke-width:.00110589" id="path2007" d="M 0.26240697,16.276497 L 0.26240697,30.176133 L 55.117276,30.176133 L 55.117276,16.276497 L 0.26240697,16.276497"/><path style="fill:url(#linearGradient11856);fill-opacity:1;stroke:none;stroke-width:.01505287;stroke-opacity:1" id="path2013" d="M 55.175888,16.63586 L 72.266438,0.04072379 L 17.044975,0.04072379 L 0,16.63586 L 55.175888,16.63586"/><path id="path2179" d="M 30.805278,24.557898 L 9.0588129,24.576613 L 9.0588129,21.825614 L 30.805278,21.825614 L 30.805278,17.540044 L 40.474397,23.191756 L 30.805278,28.843468 L 30.805278,24.557898" style="fill:#000;fill-opacity:1;stroke:none;stroke-width:.001"/><path id="path2271" d="M 31.406861,24.937229 L 9.660396,24.955944 L 9.660396,22.204946 L 31.406861,22.204946 L 31.406861,17.919375 L 41.07598,23.571087 L 31.406861,29.2228 L 31.406861,24.937229" style="fill:#fff;stroke:none;stroke-width:.001"/><path id="path2181" d="M 10.182443,21.844327 L 10.164335,17.558758 L 0.49521577,23.210469 L 10.164335,28.862183 L 10.182443,24.576613 L 10.182443,21.844327" style="fill:#000;fill-opacity:1;stroke:none;stroke-width:.001"/><path id="path2275" d="M 10.784026,22.223658 L 10.765918,17.93809 L 1.0967991,23.589801 L 10.765918,29.241514 L 10.784026,24.955944 L 10.784026,22.223658" style="fill:#fff;stroke:none;stroke-width:.001"/><path id="path2183" d="M 52.06415,21.782664 L 52.06415,17.497096 L 42.39503,23.148807 L 52.06415,28.80052 L 52.06415,24.51495 L 52.06415,21.782664" style="fill:#000;fill-opacity:1;stroke:none;stroke-width:.001"/><path id="path2279" d="M 52.665733,22.161996 L 52.665733,17.876427 L 42.996613,23.528138 L 52.665733,29.179851 L 52.665733,24.894282 L 52.665733,22.161996" style="fill:#fff;stroke:none;stroke-width:.001"/></svg>