<svg xmlns="http://www.w3.org/2000/svg" xmlns:svg="http://www.w3.org/2000/svg" xmlns:xlink="http://www.w3.org/1999/xlink" id="svg1998" width="75.386" height="47.458" version="1.0"><title id="title7771">Call manager</title><defs id="defs2001"><linearGradient id="linearGradient10123"><stop style="stop-color:#e4405c;stop-opacity:1" id="stop10125" offset="0"/><stop style="stop-color:#e4405c;stop-opacity:0" id="stop10127" offset="1"/></linearGradient><linearGradient id="linearGradient8331"><stop style="stop-color:#6e8caa;stop-opacity:1" id="stop8333" offset="0"/><stop style="stop-color:#dde3ef;stop-opacity:1" id="stop8335" offset="1"/></linearGradient><linearGradient id="linearGradient6603"><stop style="stop-color:#506eaa;stop-opacity:1" id="stop6605" offset="0"/><stop style="stop-color:#506eaa;stop-opacity:0" id="stop6607" offset="1"/></linearGradient><linearGradient id="linearGradient6587"><stop style="stop-color:#506eaa;stop-opacity:1" id="stop6589" offset="0"/><stop style="stop-color:#506eaa;stop-opacity:0" id="stop6591" offset="1"/></linearGradient><marker style="overflow:visible" id="Arrow2Lstart" orient="auto" refX="0" refY="0"><path style="font-size:12px;fill-rule:evenodd;stroke-width:.625;stroke-linejoin:round" id="path11918" d="M 8.7185878,4.0337352 L -2.2072895,0.01601326 L 8.7185884,-4.0017078 C 6.97309,-1.6296469 6.9831476,1.6157441 8.7185878,4.0337352 L 8.7185878,4.0337352 z" transform="matrix(1.1,0,0,1.1,1.1,0)"/></marker><marker style="overflow:visible" id="Arrow1Send" orient="auto" refX="0" refY="0"><path style="fill-rule:evenodd;stroke:#000;stroke-width:1pt;marker-start:none" id="path11921" d="M 0,0 L 5,-5 L -12.5,0 L 5,5 L 0,0 z" transform="matrix(-0.2,0,0,-0.2,-1.2,0)"/></marker><marker style="overflow:visible" id="Arrow1Lstart" orient="auto" refX="0" refY="0"><path style="fill-rule:evenodd;stroke:#000;stroke-width:1pt;marker-start:none" id="path11936" d="M 0,0 L 5,-5 L -12.5,0 L 5,5 L 0,0 z" transform="matrix(0.8,0,0,0.8,10,0)"/></marker><linearGradient id="linearGradient6593" x1="3.956" x2="-1.266" y1=".643" y2=".627" gradientTransform="matrix(1.060042,0,0,1.074658,-3.94248e-3,-0.356572)" gradientUnits="userSpaceOnUse" xlink:href="#linearGradient6587"/><linearGradient id="linearGradient6609" x1="2.28" x2="-.413" y1="1.452" y2="1.465" gradientTransform="matrix(1.060042,0,0,1.074658,-3.94248e-3,-0.356572)" gradientUnits="userSpaceOnUse" xlink:href="#linearGradient6603"/><linearGradient id="linearGradient10129" x1="1.399" x2=".5" y1="1.471" y2=".564" gradientTransform="matrix(1.117962,0,0,1.035008,-4.0973e-2,-6.78868e-3)" gradientUnits="userSpaceOnUse" xlink:href="#linearGradient10123"/><linearGradient id="linearGradient6875" x1="2.118" x2="-.495" y1=".306" y2=".306" gradientTransform="matrix(36.273891,0,0,25.405463,-12.695862,-5.036317)" gradientUnits="userSpaceOnUse" xlink:href="#linearGradient8331"/></defs><path style="fill:#000;fill-opacity:.39215686;stroke:none" id="path11907" d="M 3.2414687,44.39252 L 3.2414687,47.4426 L 65.092636,47.4426 L 65.092636,44.39252 L 3.2414687,44.39252"/><path style="fill:#000;fill-opacity:.39215686;stroke:none" id="path11020" d="M 65.204547,6.012075 L 75.146132,0.92492 L 75.385799,41.17175 L 65.0528,47.4576 L 65.204547,6.012075"/><path style="fill:#6e8caa;fill-opacity:1;fill-rule:nonzero;stroke:none" id="path2037" d="M 0.651406,4.9828 L 0.651406,46.15382 L 65.258598,46.15382 L 65.258598,4.9828 L 0.651406,4.9828"/><path style="fill:url(#linearGradient6875);fill-opacity:1;stroke:none" id="path2041" d="M 0,5.456143 L 8.2704457,0.044778 L 73.599724,0.044778 L 65.25673,5.456143 L -1.4210855e-014,5.456143"/><path style="fill:#6e8296;fill-opacity:1;stroke:none" id="path2045" d="M 65.062889,4.960412 L 73.306158,0 L 73.306158,41.22032 L 65.062889,46.18073 L 65.062889,4.960412"/><path style="fill:#000" id="path6890" d="M 20.386904,11.436169 L 18.121128,16.662569 L 19.192664,18.190674 L 27.577844,16.784539 L 27.700475,13.214693 L 27.700475,12.861501 L 27.823167,12.508388 L 28.068417,12.148875 L 28.068417,12.148875 L 28.423503,11.904855 L 28.791378,11.667313 L 29.262656,11.667313 L 29.139964,11.667313 L 39.442347,11.667313 L 39.442347,11.667313 L 39.932926,11.667313 L 40.16531,11.782878 L 40.410637,11.904837 L 40.888273,12.148856 L 41.010904,12.38 L 41.010904,12.38 L 41.2498,12.739511 L 41.2498,13.092626 L 41.2498,13.092626 L 41.482182,16.887292 L 49.738224,18.190653 L 50.700004,16.29016 L 48.782879,11.436151 L 48.059918,11.070162 L 46.633293,10.723445 L 45.071179,10.363856 L 43.509064,10.010739 L 41.850057,9.7795976 L 40.165318,9.5420555 L 38.364304,9.4200965 L 36.576239,9.2980357 L 35.13683,9.2980357 L 33.697337,9.2980357 L 32.37404,9.2980357 L 30.934549,9.4200965 L 30.934549,9.4200965 L 28.791398,9.5420555 L 26.98403,9.7795976 L 25.428349,10.132713 L 24.111483,10.363856 L 22.794619,10.723445 L 21.355131,11.070162 L 20.386918,11.436151 L 20.386904,11.436169 z"/><path style="fill:#000" id="path6892" d="M 13.686465,14.164941 L 13.686465,19.494034 L 16.797829,19.494034 L 16.797829,21.163463 L 13.80909,21.163463 L 13.80909,26.139444 L 6.7407746,20.335185 L 13.686465,14.164941 L 13.686465,14.164941 z"/><path style="fill:#000" id="path6894" d="M 9.0129855,37.773707 L 9.0129855,32.438136 L 5.9016217,32.438136 L 5.9016217,30.768707 L 8.9032285,30.768707 L 8.9032285,25.792727 L 15.965109,31.60986 L 9.0129855,37.773707 L 9.0129855,37.773707 z"/><path style="fill:#000" id="path6896" d="M 54.657021,14.164941 L 54.657021,19.494034 L 51.539224,19.494034 L 51.539224,21.163463 L 54.540827,21.163463 L 54.540827,26.139444 L 61.615574,20.335185 L 54.657021,14.164941 L 54.657021,14.164941 z"/><path style="fill:#000" id="path6898" d="M 59.330499,37.773707 L 59.330499,32.438136 L 62.448294,32.438136 L 62.448294,30.768707 L 59.453124,30.768707 L 59.453124,25.792727 L 52.38481,31.60986 L 59.330499,37.773707 L 59.330499,37.773707 z"/><path style="fill:#000" id="path6900" d="M 22.071646,19.269366 L 47.110994,19.269366 L 47.110994,41.093134 L 22.071646,41.093134 L 22.071646,19.269366 L 22.071646,19.269366 z"/><path style="fill:#fff" id="path6902" d="M 19.915627,10.954609 L 17.630551,16.181005 L 18.715031,17.728386 L 27.10021,16.290178 L 27.222841,12.73953 L 27.222841,12.380016 L 27.345472,12.026826 L 27.577854,11.667313 L 27.577854,11.667313 L 27.945808,11.436169 L 28.300817,11.192149 L 28.791396,11.192149 L 28.668765,11.192149 L 38.964636,11.192149 L 38.964636,11.192149 L 39.442349,11.192149 L 39.687599,11.314108 L 39.932926,11.436169 L 40.410639,11.667313 L 40.53327,11.904855 L 40.53327,11.904855 L 40.765654,12.25797 L 40.765654,12.617561 L 40.765654,12.617561 L 41.010904,16.412149 L 49.27346,17.728386 L 50.222372,15.821492 L 48.305168,10.954609 L 47.58872,10.601492 L 46.142718,10.241903 L 44.593548,9.8887885 L 43.031353,9.5420738 L 41.372425,9.298056 L 39.687607,9.0669123 L 37.893107,8.9449533 L 36.085662,8.8229943 L 34.659119,8.8229943 L 33.219628,8.8229943 L 31.902764,8.8229943 L 30.463273,8.9449533 L 30.463273,8.9449533 L 28.300821,9.0669123 L 26.506321,9.298056 L 24.944207,9.6576447 L 23.620908,9.8887885 L 22.304042,10.241903 L 20.864554,10.601492 L 19.915642,10.954609 L 19.915627,10.954609 z"/><path style="fill:#fff" id="path6904" d="M 13.215264,13.683377 L 13.215264,19.031747 L 16.326628,19.031747 L 16.326628,20.6947 L 13.331456,20.6947 L 13.331456,25.670758 L 6.2501956,19.860023 L 13.215264,13.683377 L 13.215264,13.683377 z"/><path style="fill:#fff" id="path6906" d="M 8.5352723,37.298544 L 8.5352723,31.956576 L 5.423988,31.956576 L 5.423988,30.306422 L 8.4126494,30.306422 L 8.4126494,25.330441 L 15.493908,31.134698 L 8.5352723,37.298544 z"/><path style="fill:#fff" id="path6908" d="M 54.179307,13.683377 L 54.179307,19.031747 L 51.067944,19.031747 L 51.067944,20.6947 L 54.056683,20.6947 L 54.056683,25.670758 L 61.137942,19.860023 L 54.179307,13.683377 L 54.179307,13.683377 z"/><path style="fill:#fff" id="path6910" d="M 58.852786,37.298544 L 58.852786,31.956576 L 61.964152,31.956576 L 61.964152,30.306422 L 58.97549,30.306422 L 58.97549,25.330441 L 51.907099,31.134698 L 58.852786,37.298544 z"/><path style="fill:#fff" id="path6912" d="M 21.5875,18.781406 L 46.633281,18.781406 L 46.633281,40.61805 L 21.5875,40.61805 L 21.5875,18.781406 L 21.5875,18.781406 z"/><path style="fill:none;stroke:#000;stroke-width:.15649056;stroke-opacity:1" id="path6914" d="M 24.46648,21.285433 L 44.109387,21.285433 L 44.109387,25.201995 L 24.46648,25.201995 L 24.46648,21.285433"/><path style="fill:none;stroke:#000;stroke-width:.15649056;stroke-opacity:1" id="path6916" d="M 24.46648,28.630672 L 44.109387,28.630672 L 44.109387,38.479935 L 24.46648,38.479935 L 24.46648,28.630672"/><path style="fill:none;stroke:#000;stroke-width:.15649056;stroke-opacity:1" id="path6918" d="M 44.109387,26.974119 L 24.46648,26.974119"/></svg>