<svg xmlns="http://www.w3.org/2000/svg" xmlns:svg="http://www.w3.org/2000/svg" id="svg2" width="170.117" height="75.628" version="1.1" viewBox="0.2 0.149 4.7 2.151"><metadata id="metadata57"/><path id="path4" d="m 3.7599791,0.61531938 -10e-4,-0.021 -0.003,-0.021 -0.007,-0.02 -0.009,-0.02 -0.011,-0.021 -0.013,-0.02 -0.017,-0.02 -0.018,-0.019 -0.021,-0.019 -0.023,-0.019 -0.024,-0.017 -0.028,-0.017 -0.03,-0.017 -0.031,-0.017 -0.033,-0.015 -0.035,-0.015 -0.037,-0.014 -0.038,-0.013 -0.04,-0.012 -0.041,-0.011 -0.043,-0.011 -0.045,-0.01 -0.044,-0.008 -0.046,-0.008 -0.048,-0.007 -0.047,-0.006 -0.048,-0.004 -0.049,-0.004 -0.05,-0.003 -0.049,-0.001 -0.049,-0.001 0,0 -0.05,0.001 -0.049,0.001 -0.05,0.003 -0.048,0.004 -0.049,0.004 -0.047,0.006 -0.047,0.007 -0.046,0.008 -0.045,0.008 -0.043,0.01 -0.043,0.011 -0.042,0.011 -0.04,0.012 -0.039,0.013 -0.036,0.014 -0.035,0.015 -0.033,0.015 -0.032,0.017 -0.029,0.017 -0.027,0.017 -0.026,0.017 -0.023,0.019 -0.02,0.019 -0.019,0.019 -0.016,0.02 -0.014,0.02 -0.01,0.021 -0.009,0.02 -0.006,0.02 -0.005,0.021 -0.001,0.021 0,0 0.001,0.02 0.005,0.022 0.006,0.02 0.009,0.021 0.01,0.02 0.014,0.019 0.016,0.02 0.019,0.02 0.02,0.019 0.023,0.018 0.026,0.018 0.027,0.017 0.029,0.017 0.032,0.016 0.033,0.016 0.035,0.014 0.036,0.014 0.039,0.013 0.04,0.013 0.042,0.011 0.043,0.01 0.043,0.011 0.045,0.008 0.046,0.007 0.047,0.007 0.047,0.006 0.049,0.005 0.048,0.003 0.05,0.003 0.049,10e-4 0.05,0.001 0,0 0.049,-0.001 0.049,-10e-4 0.05,-0.003 0.049,-0.003 0.048,-0.005 0.047,-0.006 0.048,-0.007 0.046,-0.007 0.044,-0.008 0.045,-0.011 0.043,-0.01 0.041,-0.011 0.04,-0.013 0.038,-0.013 0.037,-0.014 0.035,-0.014 0.033,-0.016 0.031,-0.016 0.03,-0.017 0.028,-0.017 0.024,-0.018 0.023,-0.018 0.021,-0.019 0.018,-0.02 0.017,-0.02 0.013,-0.019 0.011,-0.02 0.009,-0.021 0.007,-0.02 0.003,-0.022 10e-4,-0.02" style="fill:#fff;stroke:none"/><path id="path6" d="m 2.2259791,0.83031938 -10e-4,-0.021 -0.003,-0.02 -0.004,-0.021 -0.007,-0.02 -0.009,-0.021 -0.01,-0.02 -0.012,-0.02 -0.015,-0.018 -0.015,-0.019 -0.018,-0.019 -0.019,-0.018 -0.021,-0.017 -0.022,-0.017 -0.024,-0.016 -0.026,-0.015 -0.026,-0.015 -0.029,-0.014 -0.029,-0.013 -0.031,-0.013 -0.032,-0.011 -0.032,-0.011 -0.034,-0.009 -0.035,-0.009 -0.035,-0.008 -0.036,-0.006 -0.036,-0.006 -0.037,-0.005 -0.038,-0.004 -0.037,-0.002 -0.039,-0.002 -0.038,0 0,0 -0.037,0 -0.038,0.002 -0.038,0.002 -0.038,0.004 -0.037,0.005 -0.036,0.006 -0.036,0.006 -0.035,0.008 -0.035,0.009 -0.033,0.009 -0.033,0.011 -0.032,0.011 -0.03,0.013 -0.03,0.013 -0.028,0.014 -0.027,0.015 -0.025,0.015 -0.024,0.016 -0.023,0.017 -0.021,0.017 -0.018,0.018 -0.019,0.019 -0.015,0.019 -0.015,0.018 -0.012,0.02 -0.011,0.02 -0.008,0.021 -0.007,0.02 -0.005,0.021 -0.002,0.02 -0.001,0.021 0,0 0.001,0.021 0.002,0.021 0.005,0.02 0.007,0.021 0.008,0.02 0.011,0.02 0.012,0.02 0.015,0.019 0.015,0.019 0.019,0.018 0.018,0.018 0.021,0.018 0.023,0.016 0.024,0.016 0.025,0.016 0.027,0.014 0.028,0.015 0.03,0.012 0.03,0.013 0.032,0.012 0.033,0.01 0.033,0.01 0.035,0.008 0.035,0.008 0.036,0.007 0.036,0.005 0.037,0.005 0.038,0.004 0.038,0.002 0.038,0.002 0.037,0 0,0 0.038,0 0.039,-0.002 0.037,-0.002 0.038,-0.004 0.037,-0.005 0.036,-0.005 0.036,-0.007 0.035,-0.008 0.035,-0.008 0.034,-0.01 0.032,-0.01 0.032,-0.012 0.031,-0.013 0.029,-0.012 0.029,-0.015 0.026,-0.014 0.026,-0.016 0.024,-0.016 0.022,-0.016 0.021,-0.018 0.019,-0.018 0.018,-0.018 0.015,-0.019 0.015,-0.019 0.012,-0.02 0.01,-0.02 0.009,-0.02 0.007,-0.021 0.004,-0.02 0.003,-0.021 10e-4,-0.021" style="fill:#fff;stroke:none"/><path id="path8" d="m 1.2809791,1.2493194 -10e-4,-0.017 -0.001,-0.017 -0.004,-0.017 -0.005,-0.017 -0.005,-0.016 -0.007,-0.016 -0.009,-0.016 -0.009,-0.017 -0.011,-0.015 -0.012,-0.015 -0.012,-0.014 -0.014,-0.015 -0.015,-0.014 -0.017,-0.012 -0.017,-0.013 -0.018,-0.012 -0.019,-0.011 -0.02,-0.011 -0.02,-0.01 -0.022,-0.01 -0.022,-0.008 -0.023,-0.008 -0.023,-0.007 -0.024,-0.006 -0.024,-0.006 -0.025,-0.004 -0.024,-0.005 -0.026,-0.002 -0.025,-0.002 -0.025,-0.002 -0.026,0 0,0 -0.026,0 -0.026,0.002 -0.025,0.002 -0.025,0.002 -0.024,0.005 -0.026,0.004 -0.024,0.006 -0.023,0.006 -0.023,0.007 -0.023,0.008 -0.022,0.008 -0.022,0.01 -0.021,0.01 -0.019,0.011 -0.019,0.011 -0.018,0.012 -0.017,0.013 -0.017,0.012 -0.015,0.014 -0.014,0.015 -0.013,0.014 -0.011,0.015 -0.011,0.015 -0.01,0.017 -0.008,0.016 -0.007,0.016 -0.006,0.016 -0.004,0.017 -0.004,0.017 -0.002,0.017 0,0.017 0,0 0,0.016 0.002,0.018 0.004,0.016 0.004,0.017 0.006,0.017 0.007,0.016 0.008,0.016 0.01,0.015 0.011,0.016 0.011,0.015 0.013,0.015 0.014,0.014 0.015,0.014 0.017,0.013 0.017,0.012 0.018,0.012 0.019,0.012 0.019,0.01 0.021,0.01 0.022,0.01 0.022,0.008 0.023,0.008 0.023,0.007 0.023,0.007 0.024,0.005 0.026,0.005 0.024,0.004 0.025,0.003 0.025,10e-4 0.026,0.002 0.026,0.001 0,0 0.026,-0.001 0.025,-0.002 0.025,-10e-4 0.026,-0.003 0.024,-0.004 0.025,-0.005 0.024,-0.005 0.024,-0.007 0.023,-0.007 0.023,-0.008 0.022,-0.008 0.022,-0.01 0.02,-0.01 0.02,-0.01 0.019,-0.012 0.018,-0.012 0.017,-0.012 0.017,-0.013 0.015,-0.014 0.014,-0.014 0.012,-0.015 0.012,-0.015 0.011,-0.016 0.009,-0.015 0.009,-0.016 0.007,-0.016 0.005,-0.017 0.005,-0.017 0.004,-0.016 0.001,-0.018 10e-4,-0.016" style="fill:#fff;stroke:none"/><path id="path10" d="m 2.0969791,1.5713194 -0.002,-0.018 -0.003,-0.018 -0.004,-0.019 -0.007,-0.018 -0.009,-0.017 -0.01,-0.018 -0.013,-0.017 -0.015,-0.018 -0.016,-0.016 -0.017,-0.016 -0.019,-0.016 -0.021,-0.016 -0.024,-0.015 -0.024,-0.014 -0.026,-0.013 -0.027,-0.013 -0.028,-0.012 -0.031,-0.012 -0.03,-0.011 -0.032,-0.01 -0.034,-0.009 -0.035,-0.009 -0.034,-0.008 -0.036,-0.007 -0.036,-0.005 -0.038,-0.006 -0.037,-0.004 -0.038,-0.003 -0.038,-0.002 -0.039,-0.002 -0.038,0 0,0 -0.038,0 -0.039,0.002 -0.039,0.002 -0.038,0.003 -0.037,0.004 -0.037,0.006 -0.037,0.005 -0.035,0.007 -0.035,0.008 -0.034,0.009 -0.034,0.009 -0.032,0.01 -0.031,0.011 -0.03,0.012 -0.029,0.012 -0.027,0.013 -0.026,0.013 -0.024,0.014 -0.023,0.015 -0.021,0.016 -0.019,0.016 -0.018,0.016 -0.017,0.016 -0.014,0.018 -0.012,0.017 -0.01,0.018 -0.01,0.017 -0.006,0.018 -0.005,0.019 -0.003,0.018 -0.001,0.018 0,0 0.001,0.019 0.003,0.018 0.005,0.018 0.006,0.018 0.01,0.019 0.01,0.017 0.012,0.017 0.014,0.018 0.017,0.016 0.018,0.016 0.019,0.016 0.021,0.015 0.023,0.015 0.024,0.015 0.026,0.014 0.027,0.012 0.029,0.013 0.03,0.011 0.031,0.011 0.032,0.01 0.034,0.01 0.034,0.008 0.035,0.008 0.035,0.006 0.037,0.007 0.037,0.004 0.037,0.005 0.038,0.003 0.039,0.003 0.039,10e-4 0.038,0 0,0 0.038,0 0.039,-10e-4 0.038,-0.003 0.038,-0.003 0.037,-0.005 0.038,-0.004 0.036,-0.007 0.036,-0.006 0.034,-0.008 0.035,-0.008 0.034,-0.01 0.032,-0.01 0.03,-0.011 0.031,-0.011 0.028,-0.013 0.027,-0.012 0.026,-0.014 0.024,-0.015 0.024,-0.015 0.021,-0.015 0.019,-0.016 0.017,-0.016 0.016,-0.016 0.015,-0.018 0.013,-0.017 0.01,-0.017 0.009,-0.019 0.007,-0.018 0.004,-0.018 0.003,-0.018 0.002,-0.019" style="fill:#fff;stroke:none"/><path id="path12" d="m 3.9229791,1.7583194 -0.002,-0.021 -0.004,-0.022 -0.007,-0.022 -0.011,-0.021 -0.012,-0.021 -0.016,-0.021 -0.019,-0.021 -0.021,-0.02 -0.024,-0.02 -0.027,-0.02 -0.029,-0.018 -0.032,-0.019 -0.033,-0.017 -0.037,-0.017 -0.039,-0.016 -0.04,-0.016 -0.043,-0.014 -0.045,-0.014 -0.046,-0.013 -0.048,-0.012 -0.05,-0.01 -0.051,-0.011 -0.052,-0.009 -0.054,-0.008 -0.054,-0.007 -0.056,-0.006 -0.055,-0.005 -0.057,-0.004 -0.057,-0.002 -0.058,-0.002 -0.057,0 0,0 -0.057,0 -0.058,0.002 -0.057,0.002 -0.057,0.004 -0.056,0.005 -0.055,0.006 -0.054,0.007 -0.054,0.008 -0.052,0.009 -0.051,0.011 -0.05,0.01 -0.048,0.012 -0.047,0.013 -0.044,0.014 -0.043,0.014 -0.04,0.016 -0.039,0.016 -0.037,0.017 -0.034,0.017 -0.031,0.019 -0.029,0.018 -0.027,0.02 -0.024,0.02 -0.021,0.02 -0.018,0.021 -0.017,0.021 -0.012,0.021 -0.011,0.021 -0.007,0.022 -0.005,0.022 -10e-4,0.021 0,0 10e-4,0.023 0.005,0.021 0.007,0.022 0.011,0.021 0.012,0.022 0.017,0.02 0.018,0.021 0.021,0.02 0.024,0.02 0.027,0.02 0.029,0.018 0.031,0.018 0.034,0.018 0.037,0.017 0.039,0.016 0.04,0.016 0.043,0.015 0.044,0.013 0.047,0.013 0.048,0.012 0.05,0.011 0.051,0.01 0.052,0.009 0.054,0.009 0.054,0.007 0.055,0.005 0.056,0.005 0.057,0.004 0.057,0.003 0.058,0.002 0.057,0 0,0 0.057,0 0.058,-0.002 0.057,-0.003 0.057,-0.004 0.055,-0.005 0.056,-0.005 0.054,-0.007 0.054,-0.009 0.052,-0.009 0.051,-0.01 0.05,-0.011 0.048,-0.012 0.046,-0.013 0.045,-0.013 0.043,-0.015 0.04,-0.016 0.039,-0.016 0.037,-0.017 0.033,-0.018 0.032,-0.018 0.029,-0.018 0.027,-0.02 0.024,-0.02 0.021,-0.02 0.019,-0.021 0.016,-0.02 0.012,-0.022 0.011,-0.021 0.007,-0.022 0.004,-0.021 0.002,-0.023" style="fill:#fff;stroke:none"/><path id="path14" d="m 4.5529791,0.76631938 0,-0.016 -0.003,-0.016 -0.004,-0.017 -0.008,-0.016 -0.007,-0.016 -0.011,-0.016 -0.012,-0.015 -0.013,-0.015 -0.016,-0.015 -0.017,-0.015 -0.019,-0.013 -0.02,-0.014 -0.022,-0.013 -0.023,-0.013 -0.025,-0.012 -0.026,-0.011 -0.027,-0.012 -0.029,-0.01 -0.03,-0.01 -0.031,-0.009 -0.031,-0.008 -0.033,-0.008 -0.034,-0.007 -0.034,-0.006 -0.035,-0.005 -0.035,-0.005 -0.036,-0.003 -0.037,-0.003 -0.036,-0.002 -0.037,-0.001 -0.037,0 0,0 -0.037,0 -0.036,0.001 -0.038,0.002 -0.035,0.003 -0.036,0.003 -0.036,0.005 -0.034,0.005 -0.035,0.006 -0.034,0.007 -0.032,0.008 -0.032,0.008 -0.031,0.009 -0.03,0.01 -0.028,0.01 -0.028,0.012 -0.026,0.011 -0.025,0.012 -0.023,0.013 -0.022,0.013 -0.02,0.014 -0.019,0.013 -0.016,0.015 -0.016,0.015 -0.014,0.015 -0.012,0.015 -0.01,0.016 -0.009,0.016 -0.006,0.016 -0.005,0.017 -0.002,0.016 -10e-4,0.016 0,0 10e-4,0.016 0.002,0.016 0.005,0.017 0.006,0.016 0.009,0.016 0.01,0.016 0.012,0.016 0.014,0.014 0.016,0.016 0.016,0.014 0.019,0.014 0.02,0.013 0.022,0.014 0.023,0.013 0.025,0.012 0.026,0.011 0.028,0.011 0.028,0.011 0.03,0.009 0.031,0.009 0.032,0.009 0.032,0.007 0.034,0.007 0.035,0.006 0.034,0.006 0.036,0.004 0.036,0.003 0.035,0.003 0.038,0.003 0.036,0 0.037,10e-4 0,0 0.037,-10e-4 0.037,0 0.036,-0.003 0.037,-0.003 0.036,-0.003 0.035,-0.004 0.035,-0.006 0.034,-0.006 0.034,-0.007 0.033,-0.007 0.031,-0.009 0.031,-0.009 0.03,-0.009 0.029,-0.011 0.027,-0.011 0.026,-0.011 0.025,-0.012 0.023,-0.013 0.022,-0.014 0.02,-0.013 0.019,-0.014 0.017,-0.014 0.016,-0.016 0.013,-0.014 0.012,-0.016 0.011,-0.016 0.007,-0.016 0.008,-0.016 0.004,-0.017 0.003,-0.016 0,-0.016" style="fill:#fff;stroke:none"/><path id="path16" d="m 4.7599791,1.1813194 -10e-4,-0.016 -0.002,-0.016 -0.005,-0.017 -0.007,-0.016 -0.008,-0.016 -0.01,-0.016 -0.012,-0.016 -0.013,-0.014 -0.015,-0.015 -0.018,-0.015 -0.019,-0.014 -0.019,-0.013 -0.022,-0.013 -0.023,-0.014 -0.024,-0.011 -0.027,-0.012 -0.027,-0.011 -0.028,-0.01 -0.03,-0.01 -0.03,-0.009 -0.032,-0.008 -0.033,-0.008 -0.033,-0.007 -0.033,-0.005 -0.035,-0.006 -0.035,-0.004 -0.036,-0.004 -0.036,-0.003 -0.036,-0.002 -0.037,-0.001 -0.036,-0.001 0,0 -0.038,0.001 -0.036,0.001 -0.036,0.002 -0.036,0.003 -0.036,0.004 -0.035,0.004 -0.035,0.006 -0.033,0.005 -0.034,0.007 -0.032,0.008 -0.032,0.008 -0.03,0.009 -0.03,0.01 -0.028,0.01 -0.027,0.011 -0.027,0.012 -0.024,0.011 -0.022,0.014 -0.022,0.013 -0.021,0.013 -0.018,0.014 -0.018,0.015 -0.015,0.015 -0.013,0.014 -0.012,0.016 -0.01,0.016 -0.008,0.016 -0.007,0.016 -0.005,0.017 -0.002,0.016 -10e-4,0.016 0,0 10e-4,0.016 0.002,0.016 0.005,0.016 0.007,0.016 0.008,0.017 0.01,0.016 0.012,0.015 0.013,0.015 0.015,0.015 0.018,0.015 0.018,0.013 0.021,0.014 0.022,0.013 0.022,0.013 0.024,0.012 0.027,0.011 0.027,0.012 0.028,0.01 0.03,0.01 0.03,0.009 0.032,0.008 0.032,0.007 0.034,0.007 0.033,0.006 0.035,0.005 0.035,0.005 0.036,0.004 0.036,0.003 0.036,0.002 0.036,0.001 0.038,0 0,0 0.036,0 0.037,-0.001 0.036,-0.002 0.036,-0.003 0.036,-0.004 0.035,-0.005 0.035,-0.005 0.033,-0.006 0.033,-0.007 0.033,-0.007 0.032,-0.008 0.03,-0.009 0.03,-0.01 0.028,-0.01 0.027,-0.012 0.027,-0.011 0.024,-0.012 0.023,-0.013 0.022,-0.013 0.019,-0.014 0.019,-0.013 0.018,-0.015 0.015,-0.015 0.013,-0.015 0.012,-0.015 0.01,-0.016 0.008,-0.017 0.007,-0.016 0.005,-0.016 0.002,-0.016 10e-4,-0.016" style="fill:#fff;stroke:none"/><path id="path18" d="m 4.6189791,1.5243194 -10e-4,-0.027 -0.002,-0.027 -0.005,-0.026 -0.006,-0.027 -0.009,-0.026 -0.01,-0.026 -0.012,-0.025 -0.014,-0.025 -0.014,-0.025 -0.017,-0.023 -0.018,-0.024 -0.021,-0.022 -0.021,-0.022 -0.023,-0.02 -0.024,-0.021 -0.027,-0.018 -0.027,-0.018 -0.027,-0.018 -0.029,-0.015 -0.031,-0.015 -0.032,-0.013 -0.031,-0.013 -0.033,-0.011 -0.034,-0.01 -0.035,-0.009 -0.035,-0.007 -0.036,-0.006 -0.035,-0.005 -0.036,-0.003 -0.036,-0.002 -0.036,-0.001 0,0 -0.037,0.001 -0.036,0.002 -0.036,0.003 -0.036,0.005 -0.035,0.006 -0.035,0.007 -0.035,0.009 -0.034,0.01 -0.033,0.011 -0.032,0.013 -0.031,0.013 -0.031,0.015 -0.029,0.015 -0.028,0.018 -0.027,0.018 -0.026,0.018 -0.024,0.021 -0.023,0.02 -0.022,0.022 -0.019,0.022 -0.019,0.024 -0.017,0.023 -0.015,0.025 -0.014,0.025 -0.011,0.025 -0.01,0.026 -0.008,0.026 -0.007,0.027 -0.005,0.026 -0.002,0.027 -10e-4,0.027 0,0 10e-4,0.027 0.002,0.027 0.005,0.026 0.007,0.026 0.008,0.026 0.01,0.026 0.011,0.026 0.014,0.025 0.015,0.024 0.017,0.024 0.019,0.023 0.019,0.022 0.022,0.022 0.023,0.021 0.024,0.02 0.026,0.019 0.027,0.018 0.028,0.017 0.029,0.016 0.031,0.015 0.031,0.013 0.032,0.013 0.033,0.011 0.034,0.01 0.035,0.008 0.035,0.008 0.035,0.006 0.036,0.005 0.036,0.003 0.036,0.002 0.037,10e-4 0,0 0.036,-10e-4 0.036,-0.002 0.036,-0.003 0.035,-0.005 0.036,-0.006 0.035,-0.008 0.035,-0.008 0.034,-0.01 0.033,-0.011 0.031,-0.013 0.032,-0.013 0.031,-0.015 0.029,-0.016 0.027,-0.017 0.027,-0.018 0.027,-0.019 0.024,-0.02 0.023,-0.021 0.021,-0.022 0.021,-0.022 0.018,-0.023 0.017,-0.024 0.014,-0.024 0.014,-0.025 0.012,-0.026 0.01,-0.026 0.009,-0.026 0.006,-0.026 0.005,-0.026 0.002,-0.027 10e-4,-0.027" style="fill:#fff;stroke:none"/><path id="path22" d="m 2.7919791,0.61131938 0.965,-0.091 -0.013,-0.021 -0.014,-0.019 -0.017,-0.02 -0.019,-0.02 -0.022,-0.019 -0.024,-0.018 -0.026,-0.018 -0.028,-0.017 -0.031,-0.017 -0.032,-0.016 -0.034,-0.015 -0.036,-0.014 -0.038,-0.014 -0.039,-0.013 -0.042,-0.012 -0.042,-0.011 -0.043,-0.011 -0.045,-0.009 -0.046,-0.009 -0.047,-0.007 -0.048,-0.007 -0.048,-0.005 -0.049,-0.004 -0.049,-0.004 -0.049,-0.002 -0.051,-0.001 -0.05,0 -0.05,0 -0.049,0.003 -0.05,0.002 -0.049,0.004 -0.049,0.006 -0.047,0.006 -0.048,0.007 -0.046,0.008 -0.045,0.009 -0.044,0.01 -0.043,0.011 -0.041,0.012 -0.04,0.013 -0.038,0.013 -0.036,0.014 -0.036,0.016 -0.032,0.015 -0.032,0.017 -0.029,0.017 -0.026,0.018 -0.024,0.018 -0.024,0.019 -0.02,0.018 -0.018,0.02 -0.015,0.02 -0.012,0.021 -0.011,0.02 0.971,0.077" style="fill:#fff;stroke:none"/><path id="path24" d="m 3.7569791,0.51931938 -0.013,-0.021 -0.014,-0.019 -0.017,-0.02 -0.02,-0.019 -0.022,-0.019 -0.024,-0.018 -0.026,-0.018 -0.029,-0.018 -0.03,-0.016 -0.032,-0.016 -0.035,-0.016 -0.035,-0.014 -0.038,-0.014 -0.04,-0.012 -0.04,-0.013 -0.042,-0.011 -0.044,-0.01 -0.045,-0.01 -0.046,-0.008 -0.046,-0.008 -0.048,-0.006 -0.048,-0.005 -0.049,-0.004 -0.05,-0.004 -0.05,-0.002 -0.049,-0.001 -0.051,0 -0.049,0 -0.049,0.003 -0.051,0.002 -0.048,0.004 -0.049,0.006 -0.047,0.006 -0.048,0.007 -0.046,0.008 -0.045,0.009 -0.043,0.01 -0.043,0.011 -0.042,0.012 -0.039,0.013 -0.038,0.013 -0.036,0.014 -0.036,0.015 -0.033,0.015 -0.031,0.017 -0.028,0.018 -0.028,0.017 -0.024,0.018 -0.022,0.019 -0.021,0.019 -0.018,0.019 -0.016,0.02 -0.012,0.021 -0.011,0.02" style="fill:none;stroke:#6c8f93;stroke-width:.06067566;stroke-linecap:round;stroke-linejoin:round;stroke-miterlimit:4;stroke-dasharray:none"/><path id="path26" d="m 1.4819791,0.82631938 0.486,-0.317 -0.029,-0.013 -0.032,-0.012 -0.032,-0.012 -0.033,-0.01 -0.034,-0.01 -0.035,-0.008 -0.036,-0.008 -0.036,-0.006 -0.037,-0.006 -0.037,-0.005 -0.038,-0.003 -0.038,-0.003 -0.039,-0.001 -0.038,0 -0.038,0 -0.038,0.002 -0.038,0.003 -0.038,0.004 -0.037,0.005 -0.036,0.006 -0.037,0.007 -0.035,0.008 -0.034,0.009 -0.034,0.009 -0.033,0.011 -0.031,0.013 -0.031,0.012 -0.029,0.013 -0.028,0.015 -0.027,0.015 -0.026,0.015 -0.024,0.016 -0.022,0.018 -0.021,0.017 -0.018,0.018 -0.018,0.02 -0.016,0.018 -0.014,0.02 -0.012,0.02 -0.01,0.02 -0.008,0.02 -0.006,0.022 -0.005,0.02 -0.003,0.021 0,0.021 0.001,0.021 0.003,0.021 0.005,0.021 0.74600003,-0.067" style="fill:#fff;stroke:none"/><path id="path28" d="m 1.9659791,0.50831938 -0.03,-0.014 -0.031,-0.011 -0.033,-0.012 -0.033,-0.01 -0.035,-0.01 -0.034,-0.008 -0.036,-0.008 -0.036,-0.006 -0.037,-0.005 -0.037,-0.005 -0.038,-0.004 -0.038,-0.002 -0.039,-0.001 -0.038,0 -0.038,0 -0.038,0.003 -0.038,0.002 -0.038,0.004 -0.037,0.005 -0.036,0.007 -0.036,0.006 -0.035,0.009 -0.034,0.008 -0.034,0.011 -0.033,0.011 -0.032,0.011 -0.03,0.013 -0.029,0.013 -0.028,0.015 -0.027,0.015 -0.025,0.015 -0.024,0.016 -0.022,0.018 -0.02,0.017 -0.02,0.019 -0.017,0.018 -0.016,0.019 -0.013,0.02 -0.012,0.02 -0.01,0.02 -0.008,0.021 -0.006,0.02 -0.005,0.021 -0.003,0.02 0,0.022 0.002,0.021 0.002,0.02 0.006,0.021" style="fill:none;stroke:#6c8f93;stroke-width:.06067566;stroke-linecap:round;stroke-linejoin:round;stroke-miterlimit:4;stroke-dasharray:none"/><path id="path30" d="m 1.3459791,1.5683194 -0.78100003,-0.012 0,0.019 0.001,0.019 0.003,0.019 0.006,0.018 0.008,0.019 0.009,0.018 0.012,0.018 0.014,0.018 0.015,0.017 0.017,0.017 0.019,0.017 0.02,0.016 0.023,0.015 0.023,0.015 0.026,0.015 0.027,0.014 0.027,0.012 0.03,0.013 0.031,0.012 0.032,0.01 0.034,0.011 0.033,0.009 0.035,0.008 0.036,0.008 0.037,0.007 0.038,0.006 0.037,0.005 0.039,0.004 0.039,0.003 0.039,0.003 0.04,10e-4 0.039,0 0.039,-10e-4 0.039,-0.002 0.039,-0.002 0.039,-0.003 0.039,-0.005 0.037,-0.006 0.037,-0.005 0.037,-0.008 0.035,-0.008 0.035,-0.009 0.033,-0.009 0.033,-0.01 0.033,-0.011 0.03,-0.013 -0.513,-0.282" style="fill:#fff;stroke:none"/><path id="path32" d="m 0.56497907,1.5563194 -0.001,0.019 0.002,0.019 0.003,0.018 0.006,0.019 0.008,0.018 0.01,0.019 0.011,0.018 0.014,0.018 0.015,0.017 0.017,0.017 0.018,0.016 0.02,0.016 0.023,0.016 0.024,0.015 0.024,0.014 0.026,0.014 0.029,0.013 0.029,0.013 0.032,0.011 0.032,0.011 0.032,0.01 0.034,0.009 0.035,0.009 0.037,0.008 0.036,0.006 0.037,0.007 0.038,0.005 0.038,0.004 0.039,0.003 0.039,0.002 0.039,0.002 0.04,0 0.039,0 0.039,-0.003 0.039,-0.002 0.038,-0.003 0.038,-0.005 0.038,-0.004 0.038,-0.007 0.036,-0.007 0.036,-0.008 0.034,-0.009 0.034,-0.009 0.034,-0.01 0.031,-0.011 0.03,-0.012" style="fill:none;stroke:#6c8f93;stroke-width:.06067566;stroke-linecap:round;stroke-linejoin:round;stroke-miterlimit:4;stroke-dasharray:none"/><path id="path34" d="m 3.8359791,0.75931938 0.689,0.104 0.011,-0.016 0.01,-0.015 0.007,-0.016 0.006,-0.016 0.003,-0.016 0.002,-0.017 0,-0.016 -0.002,-0.017 -0.003,-0.016 -0.006,-0.016 -0.007,-0.016 -0.01,-0.016 -0.01,-0.016 -0.013,-0.015 -0.015,-0.015 -0.016,-0.015 -0.018,-0.014 -0.02,-0.014 -0.022,-0.014 -0.021,-0.012 -0.025,-0.013 -0.025,-0.012 -0.027,-0.011 -0.029,-0.011 -0.028,-0.01 -0.03,-0.009 -0.032,-0.009 -0.032,-0.008 -0.034,-0.007 -0.033,-0.006 -0.036,-0.006 -0.034,-0.005 -0.037,-0.004 -0.036,-0.003 -0.037,-0.003 -0.037,-0.001 -0.036,-0.001 -0.037,0 -0.037,0.001 -0.037,0.002 -0.036,0.002 -0.036,0.003 -0.036,0.004 -0.036,0.005 0.238,0.306" style="fill:#fff;stroke:none"/><path id="path36" d="m 4.4569791,0.92331938 0.067,-0.059 0.011,-0.016 0.009,-0.015 0.009,-0.016 0.005,-0.017 0.004,-0.016 0.002,-0.016 0.001,-0.016 -0.003,-0.017 -0.003,-0.016 -0.006,-0.017 -0.007,-0.015 -0.009,-0.016 -0.011,-0.016 -0.012,-0.015 -0.016,-0.015 -0.016,-0.015 -0.017,-0.014 -0.02,-0.014 -0.021,-0.014 -0.023,-0.013 -0.023,-0.012 -0.026,-0.012 -0.027,-0.011 -0.028,-0.011 -0.029,-0.011 -0.03,-0.009 -0.032,-0.008 -0.031,-0.008 -0.033,-0.008 -0.034,-0.006 -0.035,-0.006 -0.035,-0.005 -0.036,-0.004 -0.036,-0.003 -0.037,-0.002 -0.037,-0.002 -0.037,-0.001 -0.037,0 -0.037,0.001 -0.037,0.002 -0.036,0.002 -0.036,0.003 -0.036,0.004 -0.035,0.005" style="fill:none;stroke:#6c8f93;stroke-width:.06067566;stroke-linecap:round;stroke-linejoin:round;stroke-miterlimit:4;stroke-dasharray:none"/><path id="path38" d="m 3.9329791,1.1853194 0.775,0.132 0.016,-0.017 0.013,-0.017 0.012,-0.018 0.008,-0.018 0.008,-0.018 0.004,-0.019 10e-4,-0.018 0,-0.018 -0.003,-0.019 -0.004,-0.019 -0.008,-0.018 -0.009,-0.018 -0.012,-0.017 -0.014,-0.018 -0.016,-0.017 -0.018,-0.017 -0.02,-0.016 -0.023,-0.016 -0.024,-0.015 -0.686,0.20100002" style="fill:#fff;stroke:none"/><path id="path40" d="m 4.6121701,1.38473 0.098479,-0.059128 0.014482,-0.018039 0.013517,-0.018039 0.01062,-0.018039 0.00869,-0.018039 0.00772,-0.018039 0.00386,-0.018039 0.00193,-0.019041 0,-0.018039 -0.00386,-0.020044 -0.00386,-0.018039 -0.00676,-0.018039 -0.00965,-0.018039 -0.011586,-0.018039 -0.013517,-0.018039 -0.015448,-0.017037 -0.018344,-0.017037 -0.021241,-0.016035 -0.020275,-0.016035 -0.024137,-0.0160349 -0.1544773,-0.0591286" style="fill:none;stroke:#6c8f93;stroke-width:.0596842;stroke-linecap:round;stroke-linejoin:round;stroke-miterlimit:4;stroke-dasharray:none"/><path id="path42" d="m 3.9009791,1.5363194 -0.245,0.503 0.036,0.008 0.036,0.007 0.037,0.006 0.038,0.004 0.038,0.003 0.037,0.002 0.037,0 0.038,-0.002 0.037,-0.002 0.038,-0.004 0.036,-0.005 0.038,-0.007 0.035,-0.008 0.036,-0.009 0.034,-0.011 0.034,-0.012 0.033,-0.013 0.032,-0.014 0.031,-0.016 0.03,-0.016 0.028,-0.018 0.027,-0.019 0.027,-0.02 0.025,-0.02 0.022,-0.022 0.022,-0.021 0.02,-0.024 0.018,-0.024 0.016,-0.024 0.015,-0.025 0.014,-0.026 0.01,-0.025 0.01,-0.027 0.008,-0.027 0.006,-0.026 0.003,-0.028 0.002,-0.027 0,-0.027 -0.002,-0.027 -0.004,-0.027 -0.006,-0.026 -0.008,-0.028 -0.009,-0.025 -0.71,0.149" style="fill:#fff;stroke:none"/><path id="path44" d="m 3.6589791,2.0403194 0.036,0.008 0.036,0.007 0.037,0.006 0.037,0.004 0.037,0.002 0.038,0.002 0.038,10e-4 0.037,-0.003 0.038,-0.002 0.037,-0.004 0.037,-0.005 0.036,-0.007 0.036,-0.009 0.036,-0.009 0.034,-0.011 0.033,-0.011 0.034,-0.014 0.032,-0.014 0.031,-0.015 0.029,-0.018 0.029,-0.017 0.027,-0.019 0.026,-0.019 0.025,-0.021 0.023,-0.022 0.021,-0.022 0.019,-0.024 0.019,-0.023 0.016,-0.024 0.015,-0.025 0.014,-0.026 0.011,-0.026 0.008,-0.026 0.008,-0.027 0.006,-0.027 0.003,-0.027 0.002,-0.027 0,-0.027 -0.002,-0.027 -0.005,-0.027 -0.005,-0.028 -0.008,-0.026 -0.01,-0.026" style="fill:none;stroke:#6c8f93;stroke-width:.06067566;stroke-linecap:round;stroke-linejoin:round;stroke-miterlimit:4;stroke-dasharray:none"/><path id="path46" d="m 0.80297907,1.2493194 -0.037,-0.34200002 -0.028,0.002 -0.026,0.002 -0.027,0.004 -0.026,0.004 -0.026,0.005 -0.026,0.006 -0.024,0.007 -0.025,0.008 -0.024,0.008 -0.023,0.009 -0.022,0.01 -0.021,0.01 -0.021,0.012 -0.02,0.012 -0.019,0.013 -0.017,0.013 -0.017,0.014 -0.015,0.014 -0.015,0.015 -0.013,0.015 -0.011,0.016 -0.011,0.016 -0.01,0.016 -0.008,0.017 -0.006,0.017 -0.006,0.016 -0.004,0.018 -0.003,0.018 -0.001,0.017 0,0.017 0.001,0.018 0.003,0.017 0.004,0.017 0.006,0.017 0.007,0.017 0.008,0.017 0.009,0.016 0.011,0.016 0.012,0.016 0.013,0.015 0.016,0.015 0.015,0.014 0.017,0.014 0.018,0.013 0.018,0.013 0.02,0.011 0.021,0.011 0.021,0.012 0.022,0.009 0.024,0.009 0.023,0.009 0.243,-0.305" style="fill:#fff;stroke:none"/><path id="path48" d="m 0.76697907,0.90731938 -0.027,0.002 -0.027,0.002 -0.026,0.003 -0.026,0.005 -0.025,0.004 -0.026,0.006 -0.025,0.007 -0.023,0.007 -0.023,0.009 -0.023,0.009 -0.023,0.009 -0.021,0.01 -0.02,0.011 -0.02,0.012 -0.018,0.012 -0.018,0.013 -0.017,0.013 -0.016,0.015 -0.015,0.014 -0.012,0.014 -0.012,0.016 -0.012,0.015 -0.009,0.016 -0.009,0.016 -0.007,0.017 -0.006,0.017 -0.005,0.017 -0.003,0.017 -0.002,0.017 0,0.017 0,0.017 0.003,0.017 0.003,0.018 0.004,0.016 0.007,0.017 0.006,0.016 0.009,0.017 0.009,0.016 0.012,0.015 0.012,0.016 0.014,0.014 0.014,0.014 0.016,0.015 0.016,0.013 0.018,0.013 0.019,0.012 0.019,0.011 0.021,0.012 0.021,0.01 0.022,0.009 0.023,0.009 0.024,0.009" style="fill:none;stroke:#6c8f93;stroke-width:.06067566;stroke-linecap:round;stroke-linejoin:round;stroke-miterlimit:4;stroke-dasharray:none"/><path id="path50" d="m 2.7759791,1.7874896 -1.109,0.040159 0.008,0.020594 0.009,0.019565 0.013,0.020594 0.015,0.020595 0.018,0.019565 0.021,0.018535 0.023,0.018535 0.025,0.018535 0.029,0.018535 0.031,0.017505 0.032,0.015446 0.036,0.016475 0.037,0.015446 0.039,0.015446 0.042,0.013386 0.043,0.013386 0.045,0.011327 0.047,0.012357 0.048,0.010297 0.049,0.00927 0.051,0.00927 0.052,0.00824 0.053,0.00618 0.053,0.00618 0.055,0.00515 0.055,0.00412 0.056,0.00206 0.055,0.00206 0.057,0.00103 0.055,0 0.057,-0.00103 0.055,-0.00309 0.055,-0.00309 0.055,-0.00515 0.054,-0.00515 0.053,-0.00618 0.052,-0.00721 0.052,-0.00824 0.05,-0.010297 0.049,-0.00927 0.047,-0.011327 0.046,-0.011327 0.044,-0.013386 0.042,-0.014416 0.04,-0.013386 0.039,-0.015446 0.036,-0.015446 0.034,-0.016476 0.031,-0.016476 0.03,-0.017505 0.027,-0.019565 0.025,-0.017505 0.022,-0.019565 0.018,-0.018535 -1.056,-0.1307748" style="fill:#fff;stroke:none"/><path id="path52" d="m 1.6669791,1.8393194 0.008,0.019 0.01,0.02 0.012,0.02 0.016,0.019 0.017,0.019 0.021,0.018 0.023,0.018 0.025,0.019 0.03,0.017 0.03,0.017 0.032,0.015 0.036,0.016 0.037,0.015 0.039,0.015 0.042,0.013 0.044,0.013 0.043,0.011 0.048,0.012 0.047,0.01 0.049,0.009 0.051,0.009 0.052,0.008 0.053,0.006 0.053,0.005 0.055,0.006 0.054,0.003 0.056,0.003 0.056,0.002 0.056,10e-4 0.056,0 0.056,-10e-4 0.055,-0.003 0.055,-0.003 0.055,-0.005 0.054,-0.005 0.054,-0.006 0.051,-0.007 0.052,-0.008 0.05,-0.009 0.048,-0.01 0.048,-0.011 0.046,-0.011 0.043,-0.013 0.043,-0.012 0.04,-0.015 0.039,-0.014 0.036,-0.016 0.034,-0.015 0.032,-0.017 0.029,-0.016 0.027,-0.018 0.024,-0.018 0.022,-0.019 0.02,-0.018" style="fill:none;stroke:#6c8f93;stroke-width:.06067566;stroke-linecap:round;stroke-linejoin:round;stroke-miterlimit:4;stroke-dasharray:none"/><rect id="rect1892" width="2.78" height=".615" x="1.269" y=".806" rx="0" ry=".29" transform="matrix(0.999604,0.02812984,-0.02812984,0.999604,0,0)" style="fill:#fff;fill-opacity:1;fill-rule:evenodd;stroke:none"/></svg>