<svg xmlns="http://www.w3.org/2000/svg" xmlns:svg="http://www.w3.org/2000/svg" xmlns:xlink="http://www.w3.org/1999/xlink" id="svg2" width="50" height="52.851" version="1.0" viewBox="0.549 0.399 2.292 2.401"><metadata id="metadata43"/><defs id="defs41"><linearGradient id="linearGradient3184"><stop id="stop3186" offset="0" style="stop-color:#6e8caa;stop-opacity:1"/><stop id="stop3188" offset="1" style="stop-color:#6e8caa;stop-opacity:0"/></linearGradient><linearGradient id="linearGradient3176"><stop id="stop3178" offset="0" style="stop-color:#6e8caa;stop-opacity:1"/><stop id="stop3180" offset="1" style="stop-color:#6e8caa;stop-opacity:0"/></linearGradient><linearGradient id="linearGradient3168"><stop id="stop3170" offset="0" style="stop-color:#6e8caa;stop-opacity:1"/><stop id="stop3172" offset="1" style="stop-color:#6e8caa;stop-opacity:0"/></linearGradient><linearGradient id="linearGradient3174" x1=".265" x2="1.797" y1=".297" y2=".711" gradientTransform="matrix(1.2914583,0,0,1.1929584,-0.1523275,-0.0809076)" gradientUnits="userSpaceOnUse" xlink:href="#linearGradient3168"/><linearGradient id="linearGradient3182" x1="1.011" x2="3.051" y1=".336" y2="1.541" gradientTransform="matrix(1.287462,0,0,1.1929584,-0.1486101,-0.0809076)" gradientUnits="userSpaceOnUse" xlink:href="#linearGradient3176"/><linearGradient id="linearGradient3190" x1="1.564" x2="4.269" y1=".52" y2="1.907" gradientTransform="matrix(1.2639698,0,0,1.0836045,-0.09230348,0.02066747)" gradientUnits="userSpaceOnUse" xlink:href="#linearGradient3184"/></defs><path id="path2181" d="M 2.3941279,0.97172994 1.2700398,0.39735179 1.0491214,0.5880117 2.2043972,1.1479998 2.3941279,0.97172994" style="fill:#fff;fill-opacity:1;stroke:none"/><path id="path4" d="M 2.3941279,0.97065381 1.2700398,0.39627555 1.0491214,0.58693558 2.2043972,1.1469238 2.3941279,0.97065381" style="fill:url(#linearGradient3182);fill-opacity:1;stroke:none"/><path id="path2183" d="m 1.0591098,0.59088839 0.2220811,-0.1935366 -0.52515878,0 -0.20640573,0.1935366 0.50948341,0" style="fill:#fff;fill-opacity:1;stroke:none"/><path id="path4163" d="m 2.2179342,1.1798528 -1.1282158,-0.55711132 -0.49494083,0 0,2.19623822 0.49494083,0 1.1282158,-0.527289 0.3858005,0 0,-1.1118379 -0.3858005,0" style="fill:#000;fill-opacity:.39215686;stroke:none"/><path id="path2185" d="m 2.2043303,1.1475321 0.399824,0 0.1992969,-0.17329961 -0.4145821,0 -0.1845388,0.17329961" style="fill:#fff;fill-opacity:1;stroke:none"/><path id="path10" d="m 2.2097502,1.1430678 -1.1481056,-0.55711153 -0.50366938,0 0,2.19623873 0.50366938,0 1.1481056,-0.5272895 0.3926032,0 0,-1.1118377 -0.3926032,0" style="fill:#6e8caa;fill-opacity:1;stroke:none"/><path id="path3192" d="m 2.6026831,2.2913358 0.2389433,-0.2163176 -0.00758,-1.0544695 -0.2313634,0.1742648 0,1.0965223" style="fill:#000;fill-opacity:.39215686;stroke:none"/><path id="path14" d="M 2.6011531,2.258763 2.8117998,2.0551034 2.8035667,0.96657373 2.6011531,1.1471464 l 0,1.1116166" style="fill:#6e8296;fill-opacity:1;stroke:none"/><path id="path18" d="m 1.0591098,0.58981226 0.2220811,-0.19353671 -0.52515868,0 -0.20640583,0.19353671 0.50948341,0" style="fill:url(#linearGradient3174);fill-opacity:1;stroke:none"/><path id="path24" d="m 2.2043303,1.1464561 0.399824,0 0.1992969,-0.17329973 -0.4145821,0 -0.1845388,0.17329973" style="fill:url(#linearGradient3190);fill-opacity:1;stroke:none"/><path id="path28" d="m 1.9101319,2.2704158 0.4248898,-0.2648385 0.032286,0.059648 0.1407685,-0.2051891 -0.2518346,0.029825 0.030995,0.042946 -0.408101,0.2493295 -1.06932668,0 0,0.088279 1.10032248,0" style="fill:#000;stroke:none"/><path id="path30" d="M 2.2407445,1.815897 2.4770816,1.7133036 2.2407445,1.6107089 l 0,0.072769 -1.43093508,0 0,0.073965 1.43093508,0 0,0.058454" style="fill:#000;stroke:none"/><path id="path32" d="m 1.9101319,1.171699 0.4248898,0.263644 0.032286,-0.058454 0.1407685,0.2051879 -0.2518346,-0.029823 0.030995,-0.058456 -0.408101,-0.2481354 -1.06932668,0 0,-0.073963 1.10032248,0" style="fill:#000;stroke:none"/><path id="path34" d="m 1.92692,2.2549055 0.4235985,-0.2636423 0.032286,0.058454 0.1407686,-0.2039949 -0.251833,0.028629 0.032286,0.044139 -0.4093923,0.2481361 -1.06932718,0 0,0.088279 1.10161318,0" style="fill:#fff;stroke:none"/><path id="path36" d="M 2.2562416,1.8015826 2.4925793,1.698988 2.2562416,1.5963928 l 0,0.073963 -1.43093478,0 0,0.072772 1.43093478,0 0,0.058455" style="fill:#fff;stroke:none"/><path id="path38" d="m 1.92692,1.1573835 0.4235985,0.2624516 0.032286,-0.058456 0.1407686,0.2063823 -0.251833,-0.029824 0.032286,-0.058455 -0.4093923,-0.2493279 -1.06932718,0 0,-0.072771 1.10161318,0" style="fill:#fff;stroke:none"/></svg>