<svg xmlns="http://www.w3.org/2000/svg" xmlns:cc="http://web.resource.org/cc/" xmlns:svg="http://www.w3.org/2000/svg" xmlns:xlink="http://www.w3.org/1999/xlink" id="svg1998" width="71.851" height="32.285" version="1.0"><metadata id="metadata2003"/><defs id="defs2001"><linearGradient id="linearGradient6603"><stop style="stop-color:#506eaa;stop-opacity:1" id="stop6605" offset="0"/><stop style="stop-color:#506eaa;stop-opacity:0" id="stop6607" offset="1"/></linearGradient><linearGradient id="linearGradient6587"><stop style="stop-color:#6e8caa;stop-opacity:1" id="stop6589" offset="0"/><stop style="stop-color:#edeff3;stop-opacity:1" id="stop6591" offset="1"/></linearGradient><marker id="Arrow2Lstart" orient="auto" refX="0" refY="0" style="overflow:visible"><path id="path11918" d="M 8.7185878,4.0337352 L -2.2072895,0.016013256 L 8.7185884,-4.0017078 C 6.97309,-1.6296469 6.9831476,1.6157441 8.7185878,4.0337352 z" transform="matrix(1.1,0,0,1.1,1.1,0)" style="font-size:12px;fill-rule:evenodd;stroke-width:.625;stroke-linejoin:round"/></marker><marker id="Arrow1Send" orient="auto" refX="0" refY="0" style="overflow:visible"><path id="path11921" d="M 0,0 L 5,-5 L -12.5,0 L 5,5 L 0,0 z" transform="matrix(-0.2,0,0,-0.2,-1.2,0)" style="fill-rule:evenodd;stroke:#000;stroke-width:1pt;marker-start:none"/></marker><marker id="Arrow1Lstart" orient="auto" refX="0" refY="0" style="overflow:visible"><path id="path11936" d="M 0,0 L 5,-5 L -12.5,0 L 5,5 L 0,0 z" transform="matrix(0.8,0,0,0.8,10,0)" style="fill-rule:evenodd;stroke:#000;stroke-width:1pt;marker-start:none"/></marker><linearGradient id="linearGradient6593" x1="3.956" x2="-1.266" y1=".643" y2=".627" gradientTransform="matrix(1.119123,0,0,1.09281,-7.833718e-3,-0.353953)" gradientUnits="userSpaceOnUse" xlink:href="#linearGradient6587"/><linearGradient id="linearGradient6609" x1="2.28" x2="-.413" y1="1.452" y2="1.465" gradientTransform="matrix(1.119124,0,0,1.09281,-7.8336875e-3,-0.353953)" gradientUnits="userSpaceOnUse" xlink:href="#linearGradient6603"/><linearGradient id="linearGradient11856" x1="3.956" x2="-1.266" y1=".643" y2=".627" gradientTransform="matrix(15.191597,0,0,15.33747,-2.6428869,0.1648577)" gradientUnits="userSpaceOnUse" xlink:href="#linearGradient6587"/></defs><path style="fill:#000;fill-opacity:.39215686;stroke:none;stroke-width:.001" id="path13703" d="M 2.1663193,16.589602 L 2.1663193,32.285367 L 54.763443,32.285367 L 54.763443,16.589602 L 2.1663193,16.589602"/><path style="fill:#000;fill-opacity:.39215686;stroke:none;stroke-width:.001" id="path14592" d="M 54.724715,18.919483 L 71.109211,3.1102265 L 71.109211,16.523256 L 54.724715,32.33251 L 54.724715,18.919483"/><path style="fill:#6e8296;fill-opacity:1;stroke:none;stroke-width:.001" id="path2009" d="M 54.781867,16.528044 L 71.793065,0.13423853 L 71.793065,14.043216 L 54.781867,30.437021 L 54.781867,16.528044"/><path style="fill:#6e8caa;fill-opacity:1;stroke:none;stroke-width:.00110589" id="path2007" d="M 0.21478248,16.474061 L 0.21478248,30.310372 L 55.069651,30.310372 L 55.069651,16.474061 L 0.21478248,16.474061"/><path style="fill:url(#linearGradient11856);fill-opacity:1;stroke:none;stroke-width:.01505287;stroke-opacity:1" id="path2013" d="M 55.06494,16.770099 L 72.155489,0.17496232 L 16.934026,0.17496232 L -0.11094903,16.770099 L 55.06494,16.770099"/><path style="fill:#000;stroke:none;stroke-width:.001" id="path2017" d="M 34.445201,8.5762092 L 32.460781,10.520528 L 46.35171,10.520528 L 44.382325,13.007447 L 55.792729,10.038216 L 49.839474,7.5814414 L 48.336128,8.5762092 L 34.445201,8.5762092"/><path style="fill:#000;stroke:none;stroke-width:.001" id="path2019" d="M 41.390664,2.1403638 L 39.406245,4.1148268 L 53.312208,4.1148268 L 50.831684,6.5866738 L 62.738193,3.1502034 L 56.288834,0.64821244 L 55.326692,2.1403638 L 41.390664,2.1403638"/><path style="fill:#000;stroke:none;stroke-width:.001" id="path2021" d="M 29.469121,14.002214 L 31.49864,12.012679 L 17.066506,12.012679 L 19.562064,9.5408322 L 8.1065578,12.494991 L 14.08988,14.98191 L 15.097122,14.002214 L 29.469121,14.002214"/><path style="fill:#000;stroke:none;stroke-width:.001" id="path2023" d="M 35.948548,7.0539132 L 37.932966,5.1246667 L 24.027005,5.1246667 L 26.52256,2.6377476 L 14.585984,6.08929 L 21.035343,8.5762092 L 22.027552,7.0539132 L 35.948548,7.0539132"/><path style="fill:#fff;stroke:none;stroke-width:.001" id="path2025" d="M 34.941305,9.028376 L 32.956886,11.017911 L 46.862849,11.017911 L 44.87843,13.489758 L 56.288834,10.520528 L 50.320547,8.0637529 L 48.847268,9.028376 L 34.941305,9.028376"/><path style="fill:#fff;stroke:none;stroke-width:.001" id="path2027" d="M 41.901802,2.6377476 L 39.90235,4.5971384 L 53.808312,4.5971384 L 51.327789,7.0539132 L 63.249333,3.6023707 L 56.799974,1.1455961 L 55.792729,2.6377476 L 41.901802,2.6377476"/><path style="fill:#fff;stroke:none;stroke-width:.001" id="path2029" d="M 29.965225,14.484526 L 31.949645,12.494991 L 17.577645,12.494991 L 20.028101,10.038216 L 8.6176958,13.007447 L 14.585984,15.479293 L 15.563159,14.484526 L 29.965225,14.484526"/><path style="fill:#fff;stroke:none;stroke-width:.001" id="path2031" d="M 36.414585,7.5814414 L 38.429071,5.5919059 L 24.508076,5.5919059 L 27.003632,3.1502034 L 15.097122,6.5866738 L 21.546481,9.028376 L 22.508625,7.5814414 L 36.414585,7.5814414"/></svg>